<?xml version="1.0" encoding="utf-8"?>
<!-- Generator: Adobe Illustrator 17.1.0, SVG Export Plug-In . SVG Version: 6.00 Build 0)  -->
<!DOCTYPE svg PUBLIC "-//W3C//DTD SVG 1.1//EN" "http://www.w3.org/Graphics/SVG/1.1/DTD/svg11.dtd">
<svg version="1.1" id="Layer_1" xmlns="http://www.w3.org/2000/svg" xmlns:xlink="http://www.w3.org/1999/xlink" x="0px" y="0px"
	 viewBox="10.2 16.6 796 557.1" enable-background="new 10.2 16.6 796 557.1" xml:space="preserve">
<g>
	<g>
		<path class="hoverable" fill="#FFFFFF" d="M638.5,573.7H181.9c-96.3,0-171.7-75.4-171.7-171.7c0-62.8,37.7-125.7,92.1-150.8c0-8.4,0-12.6,0-20.9
			c0-83.8,67-146.6,146.6-146.6c33.5,0,62.8,12.6,88,29.3c37.7-58.6,100.5-96.3,171.7-96.3c108.9,0,201,88,201,201
			c0,8.4,0,20.9-4.2,29.3c58.6,29.3,100.5,88,100.5,155C810.2,494.1,730.6,573.7,638.5,573.7z M248.9,125.5
			c-58.6,0-104.7,46.1-104.7,104.7c0,8.4,0,20.9,4.2,29.3l4.2,20.9l-20.9,8.4c-50.3,16.8-83.8,67-83.8,117.3
			c0,67,54.5,125.7,125.7,125.7h456.5c67,0,125.7-54.5,125.7-125.7c0-54.5-33.5-104.7-88-121.5l-20.9-8.4l4.2-20.9
			c4.2-12.6,4.2-25.1,4.2-37.7c0-83.8-71.2-155-155-155c-62.8,0-117.3,37.7-142.4,96.3l-12.6,33.5l-25.1-29.3
			C307.6,138.1,282.4,125.5,248.9,125.5z"/>
	</g>
</g>
</svg>
