<?xml version="1.0" encoding="utf-8"?>
<!-- Generator: Adobe Illustrator 17.1.0, SVG Export Plug-In . SVG Version: 6.00 Build 0)  -->
<!DOCTYPE svg PUBLIC "-//W3C//DTD SVG 1.1//EN" "http://www.w3.org/Graphics/SVG/1.1/DTD/svg11.dtd">
<svg version="1.1" id="Layer_1" xmlns="http://www.w3.org/2000/svg" xmlns:xlink="http://www.w3.org/1999/xlink" x="0px" y="0px"
	 viewBox="0 0 40 40" enable-background="new 0 0 40 40" xml:space="preserve">
<g>
	<g>
		<path fill="#FFFFFF" d="M29.23,19.807l4.175-8.902c0.154-0.328-0.086-0.705-0.449-0.705l-20.448,0.03
			c-0.281,0-0.509-0.227-0.509-0.508V6.497C12,6.223,11.777,6,11.503,6h-3.81C7.31,6,7,6.306,7,6.683v0.606
			c0,0.377,0.31,0.683,0.693,0.683h1.799C9.771,7.972,10,8.201,10,8.48v14.774c0,0.275,0.223,0.497,0.497,0.497h17.81
			c0.383,0,0.693-0.306,0.693-0.683v-0.606c0-0.377-0.31-0.683-0.693-0.683H12.693c-0.383,0-0.693-0.306-0.693-0.683V20.49
			c0-0.377,0.31-0.683,0.693-0.683H29.23z M30.268,12.894l-2.317,4.941H12.508c-0.279,0-0.508-0.229-0.508-0.508V12.7
			c0-0.274,0.222-0.497,0.496-0.497l17.315-0.026C30.181,12.176,30.425,12.56,30.268,12.894z"/>
	</g>
	<circle fill="none" stroke="#FFFFFF" stroke-width="1.5" stroke-miterlimit="10" cx="13.323" cy="29.929" r="2.958"/>
	<circle fill="none" stroke="#FFFFFF" stroke-width="1.5" stroke-miterlimit="10" cx="24.804" cy="29.929" r="2.958"/>
</g>
</svg>
