<?xml version="1.0" encoding="utf-8"?>
<!-- Generator: Adobe Illustrator 17.1.0, SVG Export Plug-In . SVG Version: 6.00 Build 0)  -->
<!DOCTYPE svg PUBLIC "-//W3C//DTD SVG 1.1//EN" "http://www.w3.org/Graphics/SVG/1.1/DTD/svg11.dtd">
<svg version="1.1" id="Layer_1" xmlns="http://www.w3.org/2000/svg" xmlns:xlink="http://www.w3.org/1999/xlink" x="0px" y="0px"
	 viewBox="0 0 40 40" enable-background="new 0 0 40 40" xml:space="preserve">
<g>
	<g>
		<path fill="none" d="M28.718,18.012c0.119-0.458,0.183-0.938,0.183-1.433c0-3.122-2.53-5.654-5.652-5.654
			c-2.348,0-4.36,1.431-5.215,3.469c-0.734-0.863-1.827-1.411-3.048-1.411c-2.211,0-4.002,1.792-4.002,4.002
			c0,0.381,0.054,0.747,0.153,1.096c-1.805,0.661-3.091,2.394-3.091,4.429c0,2.603,2.109,4.717,4.716,4.717h14.537
			c2.607,0,4.717-2.114,4.717-4.717C32.014,20.399,30.629,18.614,28.718,18.012z"/>
		<path fill="#FFFFFF" d="M27.297,27.956H12.76c-3.002,0-5.444-2.443-5.444-5.445c0-2.062,1.177-3.942,2.985-4.859
			c-0.031-0.221-0.047-0.443-0.047-0.666c0-2.608,2.122-4.73,4.73-4.73c1.036,0,2.031,0.339,2.844,0.951
			c1.152-1.855,3.185-3.009,5.419-3.009c3.518,0,6.381,2.863,6.381,6.382c0,0.326-0.025,0.652-0.074,0.974
			c1.931,0.874,3.188,2.792,3.188,4.957C32.742,25.513,30.3,27.956,27.297,27.956z M14.985,13.712c-1.805,0-3.274,1.468-3.274,3.273
			c0,0.302,0.042,0.604,0.125,0.897l0.185,0.65l-0.635,0.233c-1.563,0.573-2.613,2.078-2.613,3.746c0,2.199,1.789,3.989,3.988,3.989
			h14.537c2.199,0,3.988-1.789,3.988-3.989c0-1.75-1.12-3.279-2.787-3.804l-0.66-0.208l0.174-0.669
			c0.106-0.408,0.159-0.828,0.159-1.25c0-2.716-2.209-4.925-4.924-4.925c-1.99,0-3.773,1.186-4.544,3.022l-0.459,1.093l-0.768-0.903
			C16.854,14.132,15.945,13.712,14.985,13.712z"/>
	</g>
</g>
</svg>
