<?xml version="1.0" encoding="utf-8"?>
<!-- Generator: Adobe Illustrator 17.1.0, SVG Export Plug-In . SVG Version: 6.00 Build 0)  -->
<!DOCTYPE svg PUBLIC "-//W3C//DTD SVG 1.1//EN" "http://www.w3.org/Graphics/SVG/1.1/DTD/svg11.dtd">
<svg version="1.1" id="Layer_1" xmlns="http://www.w3.org/2000/svg" xmlns:xlink="http://www.w3.org/1999/xlink" x="0px" y="0px"
	 viewBox="0 0 40 40" enable-background="new 0 0 40 40" xml:space="preserve">
<path fill="#FFFFFF" d="M29.176,18.781c-0.68-0.684-1.362-1.085-1.958-1.321c0.755-1.262,1.162-2.708,1.162-4.206
	c0-4.526-3.682-8.207-8.207-8.207c-4.526,0-8.208,3.682-8.208,8.207c0,1.473,0.393,2.897,1.125,4.144
	c-0.631,0.226-1.376,0.638-2.118,1.383C8.429,21.336,7.161,26.488,7.2,34c0.003,0.527,0.43,1,0.957,1H31.99
	c0.527,0,0.954-0.473,0.957-1C32.986,26.488,31.718,21.336,29.176,18.781z M20.172,6.96c3.47,0,6.293,2.823,6.293,6.294
	c0,1.465-0.51,2.864-1.435,3.988c-0.092,0.047-0.179,0.106-0.253,0.182c-1.234,1.275-2.912,2.006-4.605,2.006
	c-1.693,0-3.371-0.731-4.605-2.006c-0.074-0.076-0.161-0.135-0.253-0.182c-0.925-1.124-1.436-2.523-1.436-3.988
	C13.879,9.783,16.702,6.96,20.172,6.96z M9.117,33c0.083-8,1.776-11.421,3.212-12.865c0.87-0.875,1.668-1.054,2.066-1.081
	c1.117,0.956,3.233,2.409,5.779,2.409c2.527,0,4.631-1.433,5.754-2.389c0.432,0.065,1.133,0.299,1.892,1.063
	C29.255,21.579,30.947,25,31.03,33H9.117z"/>
</svg>
