<?xml version="1.0" encoding="utf-8"?>
<!-- Generator: Adobe Illustrator 17.1.0, SVG Export Plug-In . SVG Version: 6.00 Build 0)  -->
<!DOCTYPE svg PUBLIC "-//W3C//DTD SVG 1.1//EN" "http://www.w3.org/Graphics/SVG/1.1/DTD/svg11.dtd">
<svg version="1.1" id="Layer_1" xmlns="http://www.w3.org/2000/svg" xmlns:xlink="http://www.w3.org/1999/xlink" x="0px" y="0px"
	 viewBox="6 7.7 19.1 13.9" enable-background="new 6 7.7 19.1 13.9" xml:space="preserve">
<g>
	<g>
		<path class="hoverable" fill="#FFFFFF" d="M21.1,21H10.2c-2.3,0-4.1-1.8-4.1-4.1c0-1.5,0.9-3,2.2-3.6c0-0.2,0-0.3,0-0.5c0-2,1.6-3.5,3.5-3.5
			c0.8,0,1.5,0.3,2.1,0.7c0.9-1.4,2.4-2.3,4.1-2.3c2.6,0,4.8,2.1,4.8,4.8c0,0.2,0,0.5-0.1,0.7c1.4,0.7,2.4,2.1,2.4,3.7
			C25.2,19.1,23.3,21,21.1,21z M11.8,10.3c-1.4,0-2.5,1.1-2.5,2.5c0,0.2,0,0.5,0.1,0.7l0.1,0.5l-0.5,0.2c-1.2,0.4-2,1.6-2,2.8
			c0,1.6,1.3,3,3,3h10.9c1.6,0,3-1.3,3-3c0-1.3-0.8-2.5-2.1-2.9l-0.5-0.2l0.1-0.5c0.1-0.3,0.1-0.6,0.1-0.9c0-2-1.7-3.7-3.7-3.7
			c-1.5,0-2.8,0.9-3.4,2.3l-0.3,0.8l-0.6-0.7C13.2,10.6,12.6,10.3,11.8,10.3z"/>
	</g>
</g>
</svg>
