<?xml version="1.0" encoding="utf-8"?>
<!-- Generator: Adobe Illustrator 17.1.0, SVG Export Plug-In . SVG Version: 6.00 Build 0)  -->
<!DOCTYPE svg PUBLIC "-//W3C//DTD SVG 1.1//EN" "http://www.w3.org/Graphics/SVG/1.1/DTD/svg11.dtd">
<svg version="1.1" xmlns="http://www.w3.org/2000/svg" xmlns:xlink="http://www.w3.org/1999/xlink" x="0px" y="0px"
	 viewBox="208 75.7 386.2 449.3" enable-background="new 208 75.7 386.2 449.3" xml:space="preserve">
<g id="Layer_2">
</g>
<g id="Layer_1">
	<path class="hoverable" fill="#FFFFFF" d="M537.6,281.7c-10.2-10.3-20.4-16.3-29.4-19.8c11.3-18.9,17.4-40.6,17.4-63.1c0-67.9-55.2-123.1-123.1-123.1
		c-67.9,0-123.1,55.2-123.1,123.1c0,22.1,5.9,43.5,16.9,62.2c-9.5,3.4-20.6,9.6-31.8,20.7C226.4,320,207.4,397.3,208,510
		c0,7.9,6.4,15,14.4,15h357.5c7.9,0,14.3-7.1,14.4-15C594.8,397.3,575.8,320,537.6,281.7z M402.6,104.4c52,0,94.4,42.3,94.4,94.4
		c0,22-7.6,43-21.5,59.8c-1.4,0.7-2.7,1.6-3.8,2.7c-18.5,19.1-43.7,30.1-69.1,30.1c-25.4,0-50.6-11-69.1-30.1
		c-1.1-1.1-2.4-2-3.8-2.7c-13.9-16.9-21.5-37.8-21.5-59.8C308.2,146.7,350.5,104.4,402.6,104.4z M236.8,495
		c1.2-120,26.6-171.3,48.2-193c13-13.1,25-15.8,31-16.2c16.8,14.3,48.5,36.1,86.7,36.1c37.9,0,69.5-21.5,86.3-35.8
		c6.5,1,17,4.5,28.4,15.9c21.5,21.6,46.9,72.9,48.2,192.9H236.8z"/>
</g>
</svg>
