<?xml version="1.0" encoding="utf-8"?>
<!-- Generator: Adobe Illustrator 17.1.0, SVG Export Plug-In . SVG Version: 6.00 Build 0)  -->
<!DOCTYPE svg PUBLIC "-//W3C//DTD SVG 1.1//EN" "http://www.w3.org/Graphics/SVG/1.1/DTD/svg11.dtd">
<svg version="1.1" id="Layer_1" xmlns="http://www.w3.org/2000/svg" xmlns:xlink="http://www.w3.org/1999/xlink" x="0px" y="0px"
	 viewBox="0 0 26.445 26.726" enable-background="new 0 0 26.445 26.726" xml:space="preserve">
<g>
	<path class="hoverable" fill="#FFFFFF" d="M25.92,24.452l-8.55-8.55c1.303-1.646,2.083-3.723,2.083-5.98c0-5.324-4.331-9.655-9.655-9.655
		S0.144,4.598,0.144,9.922c0,5.324,4.331,9.655,9.655,9.655c2.219,0,4.265-0.755,5.897-2.018l8.559,8.559
		c0.23,0.23,0.532,0.345,0.833,0.345s0.603-0.115,0.833-0.345C26.381,25.657,26.381,24.911,25.92,24.452z M1.793,9.922
		c0-4.414,3.591-8.006,8.006-8.006s8.006,3.591,8.006,8.006s-3.591,8.006-8.006,8.006S1.793,14.336,1.793,9.922z"/>
	<path class="hoverable" fill="#FFFFFF" d="M9.867,3.27c-1.714,0-3.35,0.642-4.607,1.808C5.069,5.255,5.058,5.554,5.235,5.744
		C5.412,5.936,5.71,5.946,5.901,5.77c1.083-1.004,2.491-1.557,3.967-1.557c1.78,0,3.441,0.799,4.557,2.191
		c0.093,0.116,0.23,0.177,0.368,0.177c0.103,0,0.208-0.034,0.294-0.104c0.203-0.163,0.236-0.459,0.073-0.662
		C13.864,4.198,11.935,3.27,9.867,3.27z"/>
</g>
</svg>
