<?xml version="1.0" encoding="utf-8"?>
<!-- Generator: Adobe Illustrator 18.0.0, SVG Export Plug-In . SVG Version: 6.00 Build 0)  -->
<!DOCTYPE svg PUBLIC "-//W3C//DTD SVG 1.1//EN" "http://www.w3.org/Graphics/SVG/1.1/DTD/svg11.dtd">
<svg version="1.1" id="Layer_1" xmlns="http://www.w3.org/2000/svg" xmlns:xlink="http://www.w3.org/1999/xlink" x="0px" y="0px"
	 viewBox="0 0 126 45" enable-background="new 0 0 126 45" xml:space="preserve">
<g>
	<g>
		<defs>
			<rect id="SVGID_1_" x="14.8" y="-136.6" width="44.8" height="44.8"/>
		</defs>
		<clipPath id="SVGID_2_">
			<use xlink:href="#SVGID_1_"  overflow="visible"/>
		</clipPath>
		<polygon clip-path="url(#SVGID_2_)" fill="#4D4D4D" points="32.4,-100.7 26.8,-100.7 35.7,-91.9 44.5,-100.7 39,-100.7 39,-108 
			32.4,-108 		"/>
		<g clip-path="url(#SVGID_2_)">
			<defs>
				<rect id="SVGID_3_" x="14.8" y="-136.6" width="44.8" height="44.8"/>
			</defs>
			<clipPath id="SVGID_4_">
				<use xlink:href="#SVGID_3_"  overflow="visible"/>
			</clipPath>
			<path clip-path="url(#SVGID_4_)" fill="#FFFFFF" d="M28.9-121c0,3.1,2.5,5.6,5.6,5.6H52c3.1,0,5.7-2.5,5.7-5.6
				c0-2.4-1.5-4.5-3.7-5.3c0.1-0.4,0.2-0.9,0.2-1.3c0-2.6-2.1-4.8-4.8-4.8c-1.5,0-2.8,0.7-3.7,1.7c-1-2.4-3.4-4.2-6.2-4.2
				c-3.7,0-6.8,3-6.8,6.8c0,0.6,0.1,1.2,0.2,1.7C30.6-125.7,28.9-123.5,28.9-121"/>
			<path clip-path="url(#SVGID_4_)" fill="#4D4D4D" d="M52-114.5H34.6c-3.6,0-6.5-2.9-6.5-6.5c0-2.6,1.5-4.9,3.8-5.9
				c-0.1-0.4-0.1-0.8-0.1-1.2c0-4.2,3.4-7.7,7.7-7.7c2.7,0,5.1,1.4,6.5,3.6c1-0.7,2.2-1.1,3.4-1.1c3.1,0,5.7,2.5,5.7,5.7
				c0,0.3,0,0.5-0.1,0.8c2.2,1.1,3.6,3.4,3.6,5.8C58.5-117.4,55.6-114.5,52-114.5 M39.4-134c-3.2,0-5.9,2.6-5.9,5.9
				c0,0.5,0.1,1,0.2,1.5l0.2,0.8l-0.8,0.3c-2,0.6-3.3,2.5-3.3,4.5c0,2.6,2.1,4.8,4.8,4.8H52c2.6,0,4.8-2.1,4.8-4.8
				c0-2-1.3-3.8-3.1-4.5l-0.8-0.3l0.2-0.8c0.1-0.4,0.2-0.7,0.2-1.1c0-2.2-1.8-3.9-3.9-3.9c-1.1,0-2.2,0.5-3,1.4l-0.9,1.1l-0.6-1.3
				C43.9-132.6,41.8-134,39.4-134"/>
			<path clip-path="url(#SVGID_4_)" fill="#FFFFFF" d="M36.9-123.3c0.1-0.4,0.2-0.9,0.2-1.4c0-3-2.5-5.5-5.5-5.5
				c-2.3,0-4.2,1.4-5.1,3.4c-0.7-0.8-1.8-1.4-3-1.4c-2.1,0-3.9,1.7-3.9,3.9c0,0.4,0.1,0.7,0.1,1.1c-1.8,0.6-3,2.3-3,4.3
				c0,2.5,2.1,4.6,4.6,4.6h14.1c2.5,0,4.6-2.1,4.6-4.6C40.2-121,38.8-122.7,36.9-123.3"/>
			<path clip-path="url(#SVGID_4_)" fill="#4D4D4D" d="M35.6-113.5H21.4c-3,0-5.5-2.5-5.5-5.5c0-2,1.1-3.9,2.9-4.8
				c0-0.2,0-0.4,0-0.6c0-2.6,2.1-4.8,4.8-4.8c1,0,1.9,0.3,2.7,0.9c1.2-1.8,3.1-2.9,5.3-2.9c3.5,0,6.4,2.9,6.4,6.4
				c0,0.3,0,0.6-0.1,0.8c1.9,0.9,3.1,2.8,3.1,4.9C41-115.9,38.6-113.5,35.6-113.5 M23.6-127.3c-1.7,0-3,1.4-3,3c0,0.3,0,0.6,0.1,0.8
				l0.2,0.8l-0.8,0.3c-1.5,0.5-2.4,1.9-2.4,3.5c0,2,1.7,3.7,3.7,3.7h14.1c2,0,3.7-1.7,3.7-3.7c0-1.6-1-3-2.6-3.5l-0.8-0.3l0.2-0.8
				c0.1-0.4,0.1-0.8,0.1-1.2c0-2.5-2.1-4.6-4.6-4.6c-1.9,0-3.5,1.1-4.3,2.8l-0.6,1.3l-0.9-1.1C25.3-126.9,24.5-127.3,23.6-127.3"/>
			<path clip-path="url(#SVGID_4_)" fill="#FFFFFF" d="M46.2-115.3c0.1-0.6,0.2-1.1,0.2-1.7c0-3.8-3.1-6.8-6.8-6.8
				c-2.8,0-5.3,1.7-6.3,4.2c-0.9-1-2.2-1.7-3.7-1.7c-2.7,0-4.8,2.2-4.8,4.8c0,0.5,0.1,0.9,0.2,1.3c-2.2,0.8-3.7,2.9-3.7,5.4
				c0,3.1,2.6,5.7,5.7,5.7h17.6c3.2,0,5.7-2.6,5.7-5.7C50.2-112.4,48.5-114.6,46.2-115.3"/>
			<path clip-path="url(#SVGID_4_)" fill="#4D4D4D" d="M44.5-103.3H26.9c-3.6,0-6.6-3-6.6-6.6c0-2.5,1.4-4.8,3.6-5.9
				c0-0.3-0.1-0.5-0.1-0.8c0-3.2,2.6-5.7,5.7-5.7c1.3,0,2.5,0.4,3.4,1.2c1.4-2.2,3.9-3.6,6.6-3.6c4.3,0,7.7,3.5,7.7,7.7
				c0,0.4,0,0.8-0.1,1.2c2.3,1.1,3.9,3.4,3.9,6C51.1-106.2,48.1-103.3,44.5-103.3 M29.6-120.5c-2.2,0-4,1.8-4,4
				c0,0.4,0.1,0.7,0.2,1.1l0.2,0.8l-0.8,0.3c-1.9,0.7-3.2,2.5-3.2,4.5c0,2.7,2.2,4.8,4.8,4.8h17.6c2.7,0,4.8-2.2,4.8-4.8
				c0-2.1-1.4-4-3.4-4.6l-0.8-0.3l0.2-0.8c0.1-0.5,0.2-1,0.2-1.5c0-3.3-2.7-6-6-6c-2.4,0-4.6,1.4-5.5,3.7l-0.6,1.3l-0.9-1.1
				C31.9-120,30.8-120.5,29.6-120.5"/>
			<polygon clip-path="url(#SVGID_4_)" fill="#4D4D4D" points="37.2,-104.9 37.2,-110.7 40.7,-110.7 35.7,-115.7 30.6,-110.7 
				34.2,-110.7 34.2,-104.9 			"/>
			<polygon clip-path="url(#SVGID_4_)" fill="#FFFFFF" points="34.2,-105 34.2,-99.3 30.6,-99.3 35.7,-94.2 40.8,-99.3 37.2,-99.3 
				37.2,-105 			"/>
		</g>
	</g>
</g>
<rect x="78.6" y="-122.3" fill="none" width="64.7" height="20.1"/>
<text transform="matrix(1.0033 0 0 1 78.6205 -108.4484)"><tspan x="0" y="0" fill="#FFFFFF" font-family="'Caecilia-Bold'" font-size="18">Bazaar</tspan><tspan x="63.4" y="0" fill="#999999" font-family="'Caecilia-Bold'" font-size="18"> </tspan></text>
<g>
	<g>
		<defs>
			<rect id="SVGID_5_" x="-1" y="0.1" width="44.8" height="44.8"/>
		</defs>
		<clipPath id="SVGID_6_">
			<use xlink:href="#SVGID_5_"  overflow="visible"/>
		</clipPath>
		<polygon clip-path="url(#SVGID_6_)" fill="#4D4D4D" points="16.6,36 11,36 19.9,44.9 28.7,36 23.2,36 23.2,28.8 16.6,28.7 		"/>
		<g clip-path="url(#SVGID_6_)">
			<defs>
				<rect id="SVGID_7_" x="-1" y="0.1" width="44.8" height="44.8"/>
			</defs>
			<clipPath id="SVGID_8_">
				<use xlink:href="#SVGID_7_"  overflow="visible"/>
			</clipPath>
			<path clip-path="url(#SVGID_8_)" fill="#FFFFFF" d="M13.1,15.7c0,3.1,2.5,5.6,5.6,5.6h17.4c3.1,0,5.7-2.5,5.7-5.6
				c0-2.4-1.5-4.5-3.7-5.3c0.1-0.4,0.2-0.9,0.2-1.3c0-2.6-2.1-4.8-4.8-4.8C32,4.3,30.7,5,29.9,6c-1-2.4-3.4-4.2-6.2-4.2
				c-3.7,0-6.8,3-6.8,6.8c0,0.6,0.1,1.2,0.2,1.7C14.8,11,13.1,13.2,13.1,15.7"/>
			<path clip-path="url(#SVGID_8_)" fill="#4D4D4D" d="M36.2,22.2H18.8c-3.6,0-6.5-2.9-6.5-6.5c0-2.6,1.5-4.9,3.8-5.9
				C16,9.4,16,9,16,8.6C16,4.4,19.4,1,23.6,1c2.7,0,5.1,1.4,6.5,3.6c1-0.7,2.2-1.1,3.4-1.1c3.1,0,5.7,2.5,5.7,5.7
				c0,0.3,0,0.5-0.1,0.8c2.2,1.1,3.6,3.4,3.6,5.8C42.7,19.3,39.8,22.2,36.2,22.2 M23.6,2.7c-3.2,0-5.9,2.6-5.9,5.9
				c0,0.5,0.1,1,0.2,1.5l0.2,0.8l-0.8,0.3c-2,0.6-3.3,2.5-3.3,4.5c0,2.6,2.1,4.8,4.8,4.8h17.4c2.6,0,4.8-2.1,4.8-4.8
				c0-2-1.3-3.8-3.1-4.5L37.1,11l0.2-0.8c0.1-0.4,0.2-0.7,0.2-1.1c0-2.2-1.8-3.9-3.9-3.9c-1.1,0-2.2,0.5-3,1.4l-0.9,1.1L29,6.3
				C28.1,4.1,26,2.7,23.6,2.7"/>
			<path clip-path="url(#SVGID_8_)" fill="#FFFFFF" d="M21.1,13.4c0.1-0.4,0.2-0.9,0.2-1.4c0-3-2.5-5.5-5.5-5.5
				c-2.3,0-4.2,1.4-5.1,3.4C10,9,9,8.5,7.8,8.5c-2.1,0-3.9,1.7-3.9,3.9c0,0.4,0.1,0.7,0.1,1.1c-1.8,0.6-3,2.3-3,4.3
				c0,2.5,2.1,4.6,4.6,4.6h14.1c2.5,0,4.6-2.1,4.6-4.6C24.3,15.7,23,14,21.1,13.4"/>
			<path clip-path="url(#SVGID_8_)" fill="#4D4D4D" d="M19.8,23.2H5.6c-3,0-5.5-2.5-5.5-5.5c0-2,1.1-3.9,2.9-4.8c0-0.2,0-0.4,0-0.6
				c0-2.6,2.1-4.8,4.8-4.8c1,0,1.9,0.3,2.7,0.9c1.2-1.8,3.1-2.9,5.3-2.9c3.5,0,6.4,2.9,6.4,6.4c0,0.3,0,0.6-0.1,0.8
				c1.9,0.9,3.1,2.8,3.1,4.9C25.2,20.8,22.8,23.2,19.8,23.2 M7.8,9.4c-1.7,0-3,1.4-3,3c0,0.3,0,0.6,0.1,0.8L5.1,14l-0.8,0.3
				c-1.5,0.5-2.4,1.9-2.4,3.5c0,2,1.7,3.7,3.7,3.7h14.1c2,0,3.7-1.7,3.7-3.7c0-1.6-1-3-2.6-3.5L20.1,14l0.2-0.8
				c0.1-0.4,0.1-0.8,0.1-1.2c0-2.5-2.1-4.6-4.6-4.6c-1.9,0-3.5,1.1-4.3,2.8L11,11.6l-0.9-1.1C9.5,9.8,8.7,9.4,7.8,9.4"/>
			<path clip-path="url(#SVGID_8_)" fill="#FFFFFF" d="M30.4,21.5c0.1-0.6,0.2-1.1,0.2-1.7c0-3.8-3.1-6.8-6.8-6.8
				c-2.8,0-5.3,1.7-6.3,4.2c-0.9-1-2.2-1.7-3.7-1.7c-2.7,0-4.8,2.2-4.8,4.8c0,0.5,0.1,0.9,0.2,1.3c-2.2,0.8-3.7,2.9-3.7,5.4
				c0,3.1,2.6,5.7,5.7,5.7h17.6c3.2,0,5.7-2.6,5.7-5.7C34.4,24.3,32.7,22.2,30.4,21.5"/>
			<path clip-path="url(#SVGID_8_)" fill="#4D4D4D" d="M28.7,33.5H11.1c-3.6,0-6.6-3-6.6-6.6c0-2.5,1.4-4.8,3.6-5.9
				c0-0.3-0.1-0.5-0.1-0.8c0-3.2,2.6-5.7,5.7-5.7c1.3,0,2.5,0.4,3.4,1.2c1.4-2.2,3.9-3.6,6.6-3.6c4.3,0,7.7,3.5,7.7,7.7
				c0,0.4,0,0.8-0.1,1.2c2.3,1.1,3.9,3.4,3.9,6C35.3,30.5,32.3,33.5,28.7,33.5 M13.8,16.2c-2.2,0-4,1.8-4,4c0,0.4,0.1,0.7,0.2,1.1
				l0.2,0.8l-0.8,0.3c-1.9,0.7-3.2,2.5-3.2,4.5c0,2.7,2.2,4.8,4.8,4.8h17.6c2.7,0,4.8-2.2,4.8-4.8c0-2.1-1.4-4-3.4-4.6L29.4,22
				l0.2-0.8c0.1-0.5,0.2-1,0.2-1.5c0-3.3-2.7-6-6-6c-2.4,0-4.6,1.4-5.5,3.7l-0.6,1.3l-0.9-1.1C16.1,16.8,15,16.2,13.8,16.2"/>
			<polygon clip-path="url(#SVGID_8_)" fill="#4D4D4D" points="21.4,31.8 21.4,26.1 24.9,26.1 19.9,21 14.8,26.1 18.4,26.1 
				18.4,31.8 			"/>
			<polygon clip-path="url(#SVGID_8_)" fill="#FFFFFF" points="18.4,31.7 18.4,37.4 14.8,37.4 19.9,42.5 25,37.4 21.4,37.4 
				21.4,31.7 			"/>
		</g>
	</g>
</g>
<rect x="62.8" y="14.4" fill="none" width="64.7" height="20.1"/>
<text transform="matrix(1.0033 0 0 1 62.8158 28.2838)"><tspan x="0" y="0" fill="#FFFFFF" font-family="'Caecilia-Bold'" font-size="18">Bazaar</tspan><tspan x="63.4" y="0" fill="#999999" font-family="'Caecilia-Bold'" font-size="18"> </tspan></text>
</svg>
