<?xml version="1.0" encoding="utf-8"?>
<!-- Generator: Adobe Illustrator 18.0.0, SVG Export Plug-In . SVG Version: 6.00 Build 0)  -->
<!DOCTYPE svg PUBLIC "-//W3C//DTD SVG 1.1//EN" "http://www.w3.org/Graphics/SVG/1.1/DTD/svg11.dtd">
<svg version="1.1" id="Layer_1" xmlns="http://www.w3.org/2000/svg" xmlns:xlink="http://www.w3.org/1999/xlink" x="0px" y="0px"
	 viewBox="0 0 126 45" enable-background="new 0 0 126 45" xml:space="preserve">
<rect x="62.7" y="14.4" fill="none" width="63.5" height="20.1"/>
<text transform="matrix(1.0033 0 0 1 62.6981 28.2838)" fill="#999999" font-family="'Caecilia-Bold'" font-size="18">Bazaar </text>
<g>
	<g>
		<defs>
			<rect id="SVGID_1_" x="-1.1" y="0.1" width="44.8" height="44.8"/>
		</defs>
		<clipPath id="SVGID_2_">
			<use xlink:href="#SVGID_1_"  overflow="visible"/>
		</clipPath>
		<polygon clip-path="url(#SVGID_2_)" fill="#4D4D4D" points="16.5,36 10.9,36 19.8,44.9 28.6,36 23,36 23,28.8 16.5,28.7 		"/>
		<g clip-path="url(#SVGID_2_)">
			<defs>
				<rect id="SVGID_3_" x="-1.1" y="0.1" width="44.8" height="44.8"/>
			</defs>
			<clipPath id="SVGID_4_">
				<use xlink:href="#SVGID_3_"  overflow="visible"/>
			</clipPath>
			<path clip-path="url(#SVGID_4_)" fill="#999999" d="M13,15.7c0,3.1,2.5,5.6,5.6,5.6h17.4c3.1,0,5.7-2.5,5.7-5.6
				c0-2.4-1.5-4.5-3.7-5.3c0.1-0.4,0.2-0.9,0.2-1.3c0-2.6-2.1-4.8-4.8-4.8c-1.5,0-2.8,0.7-3.7,1.7c-1-2.4-3.4-4.2-6.2-4.2
				c-3.7,0-6.8,3-6.8,6.8c0,0.6,0.1,1.2,0.2,1.7C14.7,11,13,13.2,13,15.7"/>
			<path clip-path="url(#SVGID_4_)" fill="#4D4D4D" d="M36.1,22.2H18.6c-3.6,0-6.5-2.9-6.5-6.5c0-2.6,1.5-4.9,3.8-5.9
				c-0.1-0.4-0.1-0.8-0.1-1.2c0-4.2,3.4-7.7,7.7-7.7c2.7,0,5.1,1.4,6.5,3.6c1-0.7,2.2-1.1,3.4-1.1c3.1,0,5.7,2.5,5.7,5.7
				c0,0.3,0,0.5-0.1,0.8c2.2,1.1,3.6,3.4,3.6,5.8C42.6,19.3,39.7,22.2,36.1,22.2 M23.5,2.7c-3.2,0-5.9,2.6-5.9,5.9
				c0,0.5,0.1,1,0.2,1.5l0.2,0.8l-0.8,0.3c-2,0.6-3.3,2.5-3.3,4.5c0,2.6,2.1,4.8,4.8,4.8h17.4c2.6,0,4.8-2.1,4.8-4.8
				c0-2-1.3-3.8-3.1-4.5L36.9,11l0.2-0.8c0.1-0.4,0.2-0.7,0.2-1.1c0-2.2-1.8-3.9-3.9-3.9c-1.1,0-2.2,0.5-3,1.4l-0.9,1.1l-0.6-1.3
				C28,4.1,25.9,2.7,23.5,2.7"/>
			<path clip-path="url(#SVGID_4_)" fill="#999999" d="M21,13.4c0.1-0.4,0.2-0.9,0.2-1.4c0-3-2.5-5.5-5.5-5.5
				c-2.3,0-4.2,1.4-5.1,3.4C9.9,9,8.9,8.5,7.7,8.5c-2.1,0-3.9,1.7-3.9,3.9c0,0.4,0.1,0.7,0.1,1.1c-1.8,0.6-3,2.3-3,4.3
				c0,2.5,2.1,4.6,4.6,4.6h14.1c2.5,0,4.6-2.1,4.6-4.6C24.2,15.7,22.9,14,21,13.4"/>
			<path clip-path="url(#SVGID_4_)" fill="#4D4D4D" d="M19.6,23.2H5.5c-3,0-5.5-2.5-5.5-5.5c0-2,1.1-3.9,2.9-4.8c0-0.2,0-0.4,0-0.6
				c0-2.6,2.1-4.8,4.8-4.8c1,0,1.9,0.3,2.7,0.9c1.2-1.8,3.1-2.9,5.3-2.9c3.5,0,6.4,2.9,6.4,6.4c0,0.3,0,0.6-0.1,0.8
				c1.9,0.9,3.1,2.8,3.1,4.9C25.1,20.8,22.7,23.2,19.6,23.2 M7.7,9.4c-1.7,0-3,1.4-3,3c0,0.3,0,0.6,0.1,0.8L5,14l-0.8,0.3
				c-1.5,0.5-2.4,1.9-2.4,3.5c0,2,1.7,3.7,3.7,3.7h14.1c2,0,3.7-1.7,3.7-3.7c0-1.6-1-3-2.6-3.5L20,14l0.2-0.8
				c0.1-0.4,0.1-0.8,0.1-1.2c0-2.5-2.1-4.6-4.6-4.6c-1.9,0-3.5,1.1-4.3,2.8l-0.6,1.3L10,10.5C9.4,9.8,8.6,9.4,7.7,9.4"/>
			<path clip-path="url(#SVGID_4_)" fill="#999999" d="M30.3,21.5c0.1-0.6,0.2-1.1,0.2-1.7c0-3.8-3.1-6.8-6.8-6.8
				c-2.8,0-5.3,1.7-6.3,4.2c-0.9-1-2.2-1.7-3.7-1.7c-2.7,0-4.8,2.2-4.8,4.8c0,0.5,0.1,0.9,0.2,1.3c-2.2,0.8-3.7,2.9-3.7,5.4
				c0,3.1,2.6,5.7,5.7,5.7h17.6c3.2,0,5.7-2.6,5.7-5.7C34.3,24.3,32.6,22.2,30.3,21.5"/>
			<path clip-path="url(#SVGID_4_)" fill="#4D4D4D" d="M28.6,33.5H11c-3.6,0-6.6-3-6.6-6.6c0-2.5,1.4-4.8,3.6-5.9
				C8,20.7,8,20.5,8,20.2c0-3.2,2.6-5.7,5.7-5.7c1.3,0,2.5,0.4,3.4,1.2c1.4-2.2,3.9-3.6,6.6-3.6c4.3,0,7.7,3.5,7.7,7.7
				c0,0.4,0,0.8-0.1,1.2c2.3,1.1,3.9,3.4,3.9,6C35.2,30.5,32.2,33.5,28.6,33.5 M13.7,16.2c-2.2,0-4,1.8-4,4c0,0.4,0.1,0.7,0.2,1.1
				l0.2,0.8l-0.8,0.3c-1.9,0.7-3.2,2.5-3.2,4.5c0,2.7,2.2,4.8,4.8,4.8h17.6c2.7,0,4.8-2.2,4.8-4.8c0-2.1-1.4-4-3.4-4.6L29.2,22
				l0.2-0.8c0.1-0.5,0.2-1,0.2-1.5c0-3.3-2.7-6-6-6c-2.4,0-4.6,1.4-5.5,3.7l-0.6,1.3l-0.9-1.1C16,16.8,14.9,16.2,13.7,16.2"/>
			<polygon clip-path="url(#SVGID_4_)" fill="#4D4D4D" points="21.2,31.8 21.2,26.1 24.8,26.1 19.7,21 14.7,26.1 18.3,26.1 
				18.3,31.8 			"/>
			<polygon clip-path="url(#SVGID_4_)" fill="#999999" points="18.3,31.7 18.3,37.4 14.7,37.4 19.8,42.5 24.9,37.4 21.2,37.4 
				21.2,31.7 			"/>
		</g>
	</g>
</g>
</svg>
