<?xml version="1.0" encoding="utf-8"?>
<!-- Generator: Adobe Illustrator 17.1.0, SVG Export Plug-In . SVG Version: 6.00 Build 0)  -->
<!DOCTYPE svg PUBLIC "-//W3C//DTD SVG 1.1//EN" "http://www.w3.org/Graphics/SVG/1.1/DTD/svg11.dtd">
<svg version="1.1" id="Layer_1" xmlns="http://www.w3.org/2000/svg" xmlns:xlink="http://www.w3.org/1999/xlink" x="0px" y="0px"
	 viewBox="0 0 70 70" enable-background="new 0 0 70 70" xml:space="preserve">
<rect x="11.142" y="49.919" fill="none" width="48.723" height="13.991"/>
<text transform="matrix(1.0033 0 0 1 16.0653 59.1478)" fill="#808080" font-family="'Caecilia-Bold'" font-size="12">Basaar</text>
<g>
	<polygon fill="#FFFFFF" points="31.407,35.091 36.97,35.114 36.97,41.312 41.668,41.312 34.199,48.827 26.605,41.312 
		31.407,41.312 	"/>
	<g>
		<g>
			<g>
				<path fill="#00ADEE" d="M28.42,24.006c0,2.654,2.149,4.808,4.809,4.808h14.824c2.657,0,4.81-2.155,4.81-4.808
					c0-2.075-1.313-3.842-3.153-4.518c0.1-0.355,0.156-0.729,0.156-1.117c0-2.254-1.827-4.081-4.082-4.081
					c-1.245,0-2.359,0.559-3.109,1.438c-0.87-2.078-2.925-3.536-5.316-3.536c-3.184,0-5.765,2.581-5.765,5.764
					c0,0.505,0.064,0.994,0.186,1.461C29.831,20.032,28.42,21.852,28.42,24.006z"/>
				<path fill="#FFFFFF" d="M48.053,29.564H33.229c-3.065,0-5.559-2.493-5.559-5.558c0-2.21,1.281-4.167,3.249-5.06
					c-0.049-0.326-0.074-0.656-0.074-0.99c0-3.592,2.923-6.514,6.515-6.514c2.279,0,4.351,1.175,5.527,3.065
					c0.83-0.623,1.843-0.967,2.898-0.967c2.664,0,4.832,2.167,4.832,4.831c0,0.225-0.016,0.45-0.048,0.675
					c1.844,0.939,3.044,2.858,3.044,4.96C53.612,27.071,51.118,29.564,48.053,29.564z M37.36,12.942
					c-2.765,0-5.015,2.25-5.015,5.014c0,0.433,0.054,0.861,0.162,1.272l0.181,0.691l-0.681,0.214
					c-1.696,0.534-2.836,2.09-2.836,3.873c0,2.238,1.821,4.058,4.059,4.058h14.824c2.239,0,4.06-1.821,4.06-4.058
					c0-1.697-1.07-3.229-2.661-3.814l-0.652-0.24l0.189-0.668c0.085-0.301,0.128-0.608,0.128-0.913c0-1.836-1.495-3.331-3.332-3.331
					c-0.976,0-1.901,0.428-2.538,1.175l-0.791,0.928l-0.471-1.125C41.201,14.15,39.386,12.942,37.36,12.942z"/>
			</g>
			<g>
				<path fill="#00ADEE" d="M35.257,22.039c0.098-0.379,0.151-0.777,0.151-1.186c0-2.584-2.095-4.68-4.679-4.68
					c-1.944,0-3.609,1.185-4.317,2.871c-0.608-0.714-1.512-1.168-2.523-1.168c-1.83,0-3.312,1.483-3.312,3.312
					c0,0.315,0.045,0.619,0.127,0.907c-1.494,0.548-2.559,1.981-2.559,3.667c0,2.155,1.746,3.905,3.904,3.905h12.033
					c2.157,0,3.904-1.75,3.904-3.905C37.986,24.016,36.839,22.538,35.257,22.039z"/>
				<path fill="#FFFFFF" d="M34.081,30.417H22.048c-2.566,0-4.654-2.088-4.654-4.655c0-1.727,0.966-3.305,2.459-4.105
					c-0.018-0.155-0.027-0.312-0.027-0.468c0-2.24,1.823-4.062,4.062-4.062c0.836,0,1.641,0.257,2.314,0.724
					c0.993-1.501,2.679-2.428,4.526-2.428c2.994,0,5.429,2.436,5.429,5.43c0,0.241-0.016,0.481-0.047,0.719
					c1.594,0.767,2.625,2.377,2.625,4.19C38.736,28.329,36.648,30.417,34.081,30.417z M23.889,18.627
					c-1.413,0-2.562,1.149-2.562,2.562c0,0.237,0.033,0.473,0.098,0.702l0.19,0.67l-0.654,0.24
					c-1.236,0.453-2.067,1.644-2.067,2.962c0,1.739,1.415,3.155,3.154,3.155h12.033c1.739,0,3.154-1.415,3.154-3.155
					c0-1.384-0.886-2.593-2.204-3.008l-0.68-0.214l0.179-0.69c0.084-0.325,0.127-0.661,0.127-0.998c0-2.167-1.763-3.93-3.929-3.93
					c-1.587,0-3.01,0.947-3.625,2.411l-0.472,1.125l-0.791-0.929C25.352,18.956,24.641,18.627,23.889,18.627z"/>
			</g>
			<g>
				<path fill="#00ADEE" d="M43.161,28.887c0.122-0.472,0.188-0.966,0.188-1.476c0-3.215-2.606-5.822-5.821-5.822
					c-2.418,0-4.49,1.474-5.371,3.572c-0.756-0.888-1.882-1.453-3.139-1.453c-2.277,0-4.121,1.845-4.121,4.121
					c0,0.392,0.056,0.77,0.158,1.129c-1.859,0.681-3.183,2.465-3.183,4.562c0,2.681,2.172,4.858,4.856,4.858h14.97
					c2.684,0,4.857-2.177,4.857-4.858C46.555,31.345,45.129,29.507,43.161,28.887z"/>
				<path fill="#FFFFFF" d="M41.698,39.127h-14.97c-3.091,0-5.606-2.516-5.606-5.608c0-2.124,1.212-4.06,3.074-5.004
					c-0.032-0.227-0.049-0.456-0.049-0.686c0-2.686,2.185-4.871,4.871-4.871c1.067,0,2.092,0.349,2.928,0.979
					c1.187-1.911,3.281-3.099,5.581-3.099c3.623,0,6.571,2.948,6.571,6.572c0,0.336-0.026,0.672-0.076,1.003
					c1.989,0.9,3.283,2.875,3.283,5.105C47.305,36.611,44.79,39.127,41.698,39.127z M29.018,24.458
					c-1.859,0-3.371,1.512-3.371,3.371c0,0.311,0.043,0.622,0.129,0.924l0.19,0.67l-0.654,0.24c-1.61,0.59-2.691,2.14-2.691,3.857
					c0,2.265,1.842,4.108,4.106,4.108h14.97c2.265,0,4.107-1.843,4.107-4.108c0-1.802-1.153-3.376-2.87-3.917l-0.679-0.214
					l0.179-0.689c0.109-0.42,0.164-0.853,0.164-1.287c0-2.797-2.275-5.072-5.071-5.072c-2.049,0-3.886,1.222-4.679,3.112
					l-0.472,1.125l-0.791-0.929C30.943,24.891,30.007,24.458,29.018,24.458z"/>
			</g>
		</g>
		<g>
			<path fill="#FFFFFF" d="M35.445,37.69l0-4.88l3.029,0l-4.314-4.314l-4.314,4.314h3.073v4.88L35.445,37.69z"/>
			<g>
				<path fill="#00ADEE" d="M32.915,37.613l0,4.88l-3.029,0l4.314,4.314l4.314-4.314h-3.073v-4.88L32.915,37.613z"/>
			</g>
		</g>
	</g>
</g>
</svg>
