<?xml version="1.0" encoding="utf-8"?>
<!-- Generator: Adobe Illustrator 17.1.0, SVG Export Plug-In . SVG Version: 6.00 Build 0)  -->
<!DOCTYPE svg PUBLIC "-//W3C//DTD SVG 1.1//EN" "http://www.w3.org/Graphics/SVG/1.1/DTD/svg11.dtd">
<svg version="1.1" id="Layer_1" xmlns="http://www.w3.org/2000/svg" xmlns:xlink="http://www.w3.org/1999/xlink" x="0px" y="0px"
	 viewBox="5.1 4.4 20.1 21.1" enable-background="new 5.1 4.4 20.1 21.1" xml:space="preserve">
<g>
	<g>
		<path class="hoverable" fill="rgb(153,153,153)" d="M21.9,14.9l3.1-6.7c0.1-0.2-0.1-0.5-0.3-0.5l-15.3,0C9.2,7.7,9,7.5,9,7.3V4.9c0-0.2-0.2-0.4-0.4-0.4H5.8
			C5.5,4.5,5.2,4.7,5.2,5v0.5C5.2,5.7,5.5,6,5.8,6h1.3c0.2,0,0.4,0.2,0.4,0.4v11.1c0,0.2,0.2,0.4,0.4,0.4h13.4
			c0.3,0,0.5-0.2,0.5-0.5v-0.5c0-0.3-0.2-0.5-0.5-0.5H9.5c-0.3,0-0.5-0.2-0.5-0.5v-0.5c0-0.3,0.2-0.5,0.5-0.5H21.9z M22.7,9.7
			L21,13.4H9.4C9.2,13.4,9,13.2,9,13V9.5c0-0.2,0.2-0.4,0.4-0.4l13,0C22.6,9.1,22.8,9.4,22.7,9.7z"/>
	</g>
	<circle class="hoverable" fill="none" stroke="rgb(153,153,153)" stroke-width="1.5" stroke-miterlimit="10" cx="10" cy="22.4" r="2.2"/>
	<circle class="hoverable" fill="none" stroke="rgb(153,153,153)" stroke-width="1.5" stroke-miterlimit="10" cx="18.6" cy="22.4" r="2.2"/>
</g>
</svg>
